<svg xmlns="http://www.w3.org/2000/svg" width="783" height="569" viewBox="0 0 783 569">
<g>
<path d="M 482.33 469.25 C483.12,473.51 483.39,477.00 482.94,477.00 C482.50,477.00 474.52,470.59 465.22,462.75 C455.92,454.91 443.46,444.45 437.53,439.50 C431.60,434.55 422.30,426.76 416.87,422.18 L 407.00 413.86 L 407.00 398.10 C407.00,389.43 407.27,382.07 407.59,381.74 C407.92,381.41 423.08,393.60 441.29,408.82 C459.49,424.05 474.75,436.75 475.20,437.07 C475.97,437.60 479.05,451.49 482.33,469.25 ZM 334.24 461.80 C324.74,469.88 316.47,476.67 315.86,476.88 C314.47,477.34 315.08,472.82 319.08,453.04 C320.69,445.09 322.00,438.49 322.00,438.37 C322.00,437.97 362.09,404.17 368.57,399.11 C369.70,398.23 368.42,399.56 365.72,402.08 L 360.81 406.67 L 363.99 406.67 C365.74,406.67 367.53,407.24 367.96,407.94 C368.56,408.90 371.04,409.03 378.37,408.48 C386.20,407.90 388.00,408.02 388.02,409.13 C388.03,410.20 388.24,410.17 389.00,409.00 C390.10,407.31 390.38,383.00 389.30,383.00 C388.92,383.00 387.23,384.23 385.55,385.73 C382.56,388.40 382.56,388.39 385.73,385.01 C387.98,382.62 389.29,381.89 390.01,382.61 C390.67,383.27 390.95,389.33 390.78,399.04 L 390.50 414.42 L 371.00 430.76 C360.27,439.74 343.73,453.71 334.24,461.80 ZM 407.66 491.00 L 407.50 542.50 L 399.25 542.79 L 391.00 543.08 L 390.99 522.79 C390.98,511.63 390.71,488.55 390.38,471.50 L 389.78 440.50 L 394.35 436.08 L 398.92 431.66 L 403.37 435.58 L 407.82 439.50 ZM 433.75 510.01 C432.51,510.01 429.14,510.30 426.25,510.65 L 421.00 511.28 L 421.00 481.56 C421.00,464.84 421.39,451.98 421.88,452.17 C422.37,452.35 425.74,455.30 429.38,458.72 L 436.00 464.93 L 436.00 510.00 ZM 377.00 481.42 L 377.00 511.00 L 374.25 510.83 C372.74,510.73 369.64,510.48 367.37,510.27 L 363.24 509.90 L 362.51 487.52 L 361.78 465.14 L 368.51 458.82 C372.21,455.34 375.63,452.35 376.12,452.17 C376.61,451.98 377.00,464.78 377.00,481.42 ZM 440.34 410.94 C442.58,413.18 442.23,411.87 439.92,409.38 C437.02,406.24 409.40,383.00 408.58,383.00 C407.70,383.00 407.92,404.32 408.81,405.73 C409.39,406.63 409.95,406.45 410.97,405.04 C412.10,403.48 412.74,403.32 414.41,404.22 C415.54,404.82 417.03,405.88 417.72,406.58 C418.41,407.27 422.02,408.14 425.74,408.50 C438.48,409.75 439.29,409.89 440.34,410.94 ZM 404.75 458.03 C406.44,460.00 406.51,459.74 406.79,450.34 L 407.08 440.61 L 399.03 432.56 L 395.02 436.48 C391.18,440.23 391.00,440.67 391.07,446.45 C391.14,452.12 392.75,459.27 392.93,454.69 C392.97,453.70 393.45,453.16 394.00,453.50 C394.55,453.84 395.00,453.63 395.00,453.02 C395.00,452.25 395.57,452.23 396.93,452.96 C398.00,453.53 399.80,454.00 400.93,454.00 C402.07,454.00 403.00,454.44 403.00,454.99 C403.00,455.53 403.79,456.90 404.75,458.03 ZM 495.29 425.25 C496.17,427.86 496.52,430.00 496.08,430.00 C495.04,430.00 486.00,423.09 486.00,422.30 C486.00,421.96 486.79,422.38 487.75,423.22 C488.71,424.06 490.57,425.30 491.88,425.98 C494.24,427.20 494.25,427.17 493.54,423.36 C492.63,418.48 493.26,419.16 495.29,425.25 Z" fill="rgb(85,162,210)" data-index="0" style="opacity: 1;"></path>
<path d="M 334.15 405.24 C317.84,418.30 304.11,428.99 303.64,428.99 C303.17,429.00 303.09,427.76 303.46,426.25 C304.09,423.72 315.85,389.77 317.50,385.75 C317.89,384.79 317.83,384.00 317.36,384.00 C316.88,384.00 310.65,388.62 303.50,394.26 L 303.10 394.57 C278.54,413.95 274.02,417.52 273.19,416.80 C273.00,416.64 273.00,416.26 273.00,415.80 L 273.00 415.76 C273.00,412.33 279.21,391.12 283.77,379.00 C292.18,356.63 299.12,345.68 312.63,333.48 C340.77,308.07 370.11,282.95 371.01,283.51 C371.41,283.75 372.58,282.95 373.62,281.73 L 375.50 279.50 L 370.50 283.50 L 372.37 281.29 C373.40,280.07 374.52,279.13 374.87,279.20 C376.14,279.44 378.97,277.77 378.53,277.04 C378.27,276.63 379.29,275.21 380.78,273.90 L 383.50 271.50 L 381.08 274.25 C378.67,276.98 379.36,278.15 381.95,275.75 C383.02,274.75 383.15,274.75 382.59,275.75 C382.20,276.44 382.36,277.00 382.94,277.00 C383.52,277.00 384.00,276.55 384.00,276.00 C384.00,275.45 384.38,275.00 384.84,275.00 C385.56,275.00 386.16,276.55 388.54,284.50 C388.71,285.05 388.88,284.71 388.92,283.75 C388.96,282.79 389.45,282.00 390.00,282.00 C390.65,282.00 391.00,295.65 391.00,320.96 L 391.00 359.92 L 377.40 370.71 C369.92,376.64 350.46,392.18 334.15,405.24 ZM 493.97 421.25 C494.16,421.84 494.34,422.41 494.51,422.97 C493.11,419.08 492.76,419.18 493.54,423.36 C494.25,427.17 494.24,427.20 491.88,425.98 C490.57,425.30 488.71,424.06 487.75,423.22 C486.79,422.38 486.00,421.96 486.00,422.30 C486.00,422.37 486.07,422.48 486.19,422.64 C485.62,422.13 485.03,421.61 484.43,421.06 C481.63,418.55 475.63,413.58 471.09,410.00 C466.55,406.42 457.36,399.12 450.67,393.78 C443.97,388.43 431.66,378.75 423.31,372.28 L 408.11 360.50 L 408.07 320.50 C408.04,294.33 408.37,281.02 409.00,282.00 C409.78,283.21 409.97,283.04 409.98,281.18 C409.99,279.90 410.59,278.26 411.32,277.54 C412.91,275.95 415.05,276.89 419.60,281.18 C421.30,282.79 423.10,283.97 423.60,283.80 C424.09,283.64 426.30,284.60 428.50,285.94 C430.70,287.28 432.87,288.28 433.32,288.16 C434.08,287.97 444.70,296.72 457.99,308.50 C461.10,311.25 470.49,319.51 478.87,326.84 C487.25,334.18 495.91,342.48 498.13,345.28 C502.36,350.63 510.11,365.99 515.09,378.87 C517.84,386.00 526.00,413.08 526.00,415.09 C526.00,417.43 522.07,414.85 503.00,400.01 C491.73,391.23 482.11,384.04 481.64,384.03 C481.17,384.01 481.11,384.79 481.51,385.75 C483.11,389.64 491.33,413.06 493.97,421.25 ZM 365.72 402.08 C367.69,400.24 368.91,399.03 368.98,398.86 C370.62,397.61 371.53,397.00 371.75,397.00 C372.26,397.00 376.37,393.56 380.89,389.36 C382.60,387.77 384.10,386.45 385.36,385.41 C382.57,388.39 382.68,388.29 385.55,385.73 C387.23,384.23 388.92,383.00 389.30,383.00 C390.38,383.00 390.10,407.31 389.00,409.00 C388.24,410.17 388.03,410.20 388.02,409.13 C388.00,408.02 386.20,407.90 378.37,408.48 C371.04,409.03 368.56,408.90 367.96,407.94 C367.53,407.24 365.74,406.67 363.99,406.67 L 360.81 406.67 ZM 440.34 410.94 C439.29,409.89 438.48,409.75 425.74,408.50 C422.02,408.14 418.41,407.27 417.72,406.58 C417.03,405.88 415.54,404.82 414.41,404.22 C412.74,403.32 412.10,403.48 410.97,405.04 C409.95,406.45 409.39,406.63 408.81,405.73 C407.92,404.32 407.70,383.00 408.58,383.00 C409.40,383.00 437.02,406.24 439.92,409.38 C442.23,411.87 442.58,413.18 440.34,410.94 ZM 321.89 302.14 C322.45,302.34 318.93,305.96 314.06,310.18 C309.19,314.41 304.93,317.60 304.60,317.27 C304.27,316.94 304.09,307.85 304.21,297.08 L 304.42 277.50 L 305.00 292.50 C305.32,300.75 305.69,305.25 305.83,302.50 C306.08,297.24 308.45,293.32 312.68,291.13 C315.77,289.53 319.96,289.73 320.64,291.50 C320.95,292.33 322.25,293.00 323.51,293.00 C325.39,293.00 325.71,293.41 325.27,295.25 C324.97,296.49 323.85,298.46 322.79,299.64 C321.72,300.83 321.32,301.94 321.89,302.14 ZM 491.50 315.00 C492.50,316.10 493.08,317.00 492.81,317.00 C492.53,317.00 491.50,316.10 490.50,315.00 C489.50,313.90 488.98,313.00 489.34,313.00 C489.69,313.00 489.21,312.10 488.27,311.00 C486.39,308.80 484.45,308.26 485.61,310.25 C486.01,310.94 485.38,310.65 484.20,309.62 C483.01,308.58 482.25,307.41 482.49,307.02 C482.73,306.63 481.58,305.01 479.93,303.43 C478.27,301.85 476.25,299.20 475.42,297.54 C474.05,294.80 474.07,294.42 475.66,293.26 C476.61,292.56 478.18,292.24 479.15,292.55 C480.11,292.85 482.22,292.42 483.82,291.59 C485.43,290.76 487.04,290.37 487.40,290.74 C487.76,291.10 488.82,291.50 489.76,291.64 C490.70,291.78 491.62,292.37 491.82,292.96 C492.02,293.55 492.81,294.67 493.59,295.45 C495.48,297.33 495.62,313.17 493.75,312.93 C490.24,312.47 489.68,312.99 491.50,315.00 ZM 404.75 458.03 C403.79,456.90 403.00,455.53 403.00,454.99 C403.00,454.44 402.07,454.00 400.93,454.00 C399.80,454.00 398.00,453.53 396.93,452.96 C395.57,452.23 395.00,452.25 395.00,453.02 C395.00,453.63 394.55,453.84 394.00,453.50 C393.45,453.16 392.97,453.70 392.93,454.69 C392.75,459.27 391.14,452.12 391.07,446.45 C391.00,440.67 391.18,440.23 395.02,436.48 L 399.03 432.56 L 407.08 440.61 L 406.79 450.34 C406.51,459.74 406.44,460.00 404.75,458.03 ZM 327.05 433.91 C329.08,432.16 331.57,430.03 334.25,427.75 C348.29,415.83 358.08,407.63 364.13,402.71 C354.92,410.29 336.08,426.15 327.05,433.91 ZM 491.24 426.89 C493.39,428.51 495.50,429.93 496.05,430.00 C496.04,430.00 496.04,430.00 496.03,430.00 C495.44,430.00 493.74,428.88 491.24,426.89 ZM 390.05 382.65 C390.06,382.66 390.07,382.67 390.09,382.69 C390.25,382.85 390.38,383.50 390.49,384.56 C390.37,383.54 390.23,382.89 390.05,382.65 Z" fill="rgb(67,102,198)" data-index="1" style="opacity: 1;"></path>
<path d="M 495.00 267.12 C495.00,282.12 494.96,292.94 494.86,300.58 C494.62,298.09 494.19,296.05 493.59,295.45 C492.81,294.67 492.02,293.55 491.82,292.96 C491.62,292.37 490.70,291.78 489.76,291.64 C488.82,291.50 487.76,291.10 487.40,290.74 C487.04,290.37 485.43,290.76 483.82,291.59 C482.22,292.42 480.11,292.85 479.15,292.55 C478.18,292.24 476.61,292.56 475.66,293.26 C474.07,294.42 474.05,294.80 475.42,297.54 C476.25,299.20 478.27,301.85 479.93,303.43 C481.58,305.01 482.73,306.63 482.49,307.02 C482.33,307.28 482.61,307.87 483.15,308.54 C481.97,307.52 480.75,306.45 479.50,305.34 C472.35,298.99 453.34,282.51 437.25,268.73 L 408.00 243.68 L 408.00 192.34 C408.00,164.10 408.34,141.01 408.75,141.01 C409.16,141.02 418.29,148.33 429.04,157.26 C439.78,166.19 458.74,181.93 471.16,192.22 C489.83,207.71 493.85,211.49 494.37,214.10 C494.72,215.83 495.00,239.69 495.00,267.12 ZM 321.89 302.14 C321.32,301.94 321.72,300.83 322.79,299.64 C323.85,298.46 324.97,296.49 325.27,295.25 C325.71,293.41 325.39,293.00 323.51,293.00 C322.25,293.00 320.95,292.33 320.64,291.50 C319.96,289.73 315.77,289.53 312.68,291.13 C308.45,293.32 306.08,297.24 305.83,302.50 C305.69,305.25 305.32,300.75 305.00,292.50 L 304.42 277.50 L 304.21 297.08 C304.19,298.51 304.18,299.90 304.18,301.25 C304.07,291.59 304.00,278.39 304.00,263.95 L 304.00 211.24 L 312.75 203.90 C356.26,167.40 388.29,141.00 389.06,141.00 C389.63,141.00 390.00,161.16 390.00,192.47 L 390.00 243.93 L 364.39 266.22 C350.31,278.47 336.17,290.75 332.98,293.50 C330.15,295.94 323.90,301.40 318.32,306.33 C320.80,303.95 322.27,302.27 321.89,302.14 ZM 439.01 292.25 C435.72,289.59 433.64,288.08 433.32,288.16 C432.87,288.28 430.70,287.28 428.50,285.94 C426.30,284.60 424.09,283.64 423.60,283.80 C423.10,283.97 421.30,282.79 419.60,281.18 C415.05,276.89 412.91,275.95 411.32,277.54 C410.59,278.26 409.99,279.90 409.98,281.18 C409.97,283.04 409.78,283.21 409.00,282.00 C408.37,281.02 408.04,294.33 408.07,320.50 L 408.11 360.50 L 408.06 313.75 C408.03,288.04 408.29,267.00 408.65,267.00 C409.41,267.00 416.39,272.63 423.54,279.00 C426.11,281.29 432.83,287.05 439.01,292.25 ZM 391.00 313.46 L 391.00 320.96 C391.00,295.65 390.65,282.00 390.00,282.00 C389.45,282.00 388.96,282.79 388.92,283.75 C388.88,284.71 388.71,285.05 388.54,284.50 C386.16,276.55 385.56,275.00 384.84,275.00 C384.38,275.00 384.00,275.45 384.00,276.00 C384.00,276.55 383.52,277.00 382.94,277.00 C382.36,277.00 382.20,276.44 382.59,275.75 C383.15,274.75 383.02,274.75 381.95,275.75 C379.36,278.15 378.67,276.98 381.08,274.25 L 382.08 273.12 C387.03,269.09 389.90,267.00 390.49,267.00 C390.77,267.00 391.00,287.91 391.00,313.46 ZM 491.50 315.00 C489.68,312.99 490.24,312.47 493.75,312.93 C494.09,312.97 494.37,312.48 494.57,311.64 C494.38,315.50 494.12,316.96 493.75,316.94 C493.60,316.94 493.15,316.67 492.47,316.18 C492.23,315.85 491.90,315.44 491.50,315.00 ZM 372.68 280.93 C372.58,281.05 372.47,281.17 372.37,281.29 L 370.50 283.50 L 375.50 279.50 L 373.62 281.73 C372.58,282.95 371.41,283.75 371.01,283.51 C370.52,283.21 361.65,290.47 349.13,301.25 C358.47,293.09 366.37,286.27 372.68,280.93 ZM 485.56 310.60 C485.76,310.68 485.80,310.57 485.61,310.25 C484.45,308.26 486.39,308.80 488.27,311.00 C489.21,312.10 489.69,313.00 489.34,313.00 C489.09,313.00 489.26,313.43 489.72,314.06 C488.52,313.09 487.11,311.92 485.56,310.60 ZM 379.36 275.34 C378.71,276.12 378.36,276.78 378.53,277.04 C378.97,277.77 376.14,279.44 374.87,279.20 C374.83,279.19 374.78,279.20 374.71,279.22 C376.39,277.81 377.94,276.51 379.36,275.34 ZM 283.77 379.00 C288.07,367.55 291.83,359.32 296.41,352.23 C291.89,359.33 288.01,367.71 283.77,379.00 ZM 458.02 308.50 C461.11,311.25 470.49,319.51 478.87,326.84 C470.49,319.51 461.10,311.25 457.99,308.50 C456.94,307.57 455.91,306.65 454.89,305.76 C456.17,306.87 457.25,307.81 458.02,308.50 ZM 304.61 317.27 C304.66,317.31 304.77,317.29 304.94,317.21 C304.76,317.30 304.65,317.32 304.61,317.28 C304.61,317.28 304.61,317.28 304.61,317.27 Z" fill="rgb(89,49,174)" data-index="2"></path>

</g>
</svg>